# xmcd
#
# Track frame offsets: 
#        150
#        14295
#        27940
#        42042
#        55730
#        70002
#        82805
#        95920
#        105947
#        118065
#        132635
#        147847
#        159852
#        174335
#        187715
#        200010
#        214957
#        230300
#        243370
#        261307
#        276270
#        289100
#        304915
#        319407
#
# Disc length: 4440 seconds
#
# Revision: 2
# Processed by: cddbd v1.5.2PL0 Copyright (c) Steve Scherf et al.
# Submitted via: ExactAudioCopy v0.95b4
#
DISCID=53115618
DTITLE=Muddy Waters - Rollin' Stone: The Golden Anniversary Collection
DTITLE=[CD2]
DYEAR=2000
DGENRE=Blues
TTITLE0=Rollin' Stone
TTITLE1=Rollin' Stone (Alternate Take)
TTITLE2=You're Gonna Need My Help I Said
TTITLE3=Sad Letter Blues
TTITLE4=Early Morning Blues
TTITLE5=Appealing Blues (Hello Little Girl)
TTITLE6=Louisiana Blues
TTITLE7=Evan's Shuffle
TTITLE8=Long Distance Call
TTITLE9=Too Young To know
TTITLE10=Honey Bee
TTITLE11=Howling Wolf
TTITLE12=Country Boy
TTITLE13=She Moves Me
TTITLE14=My Fault
TTITLE15=Still A Fool
TTITLE16=They Call Me Muddy Waters
TTITLE17=All Night Long
TTITLE18=All Night Long (Alternate Take)
TTITLE19=All Night Long (Alternate Take #2)
TTITLE20=Stuff You Gotta Watch
TTITLE21=Lonesome Day
TTITLE22=Please Have Mercy
TTITLE23=Who's Gonna Be Your Sweet Man
EXTD=YEAR: 2000 ID3G: 0
EXTT0=
EXTT1=
EXTT2=
EXTT3=
EXTT4=
EXTT5=
EXTT6=
EXTT7=
EXTT8=
EXTT9=
EXTT10=
EXTT11=
EXTT12=
EXTT13=
EXTT14=
EXTT15=
EXTT16=
EXTT17=
EXTT18=
EXTT19=
EXTT20=
EXTT21=
EXTT22=
EXTT23=
PLAYORDER=
